# xmcd
#
# Track frame offsets: 
#        150
#        27510
#        38572
#        59222
#        89797
#        123000
#        140575
#        157692
#        176200
#        185260
#
# Disc length: 2610 seconds
#
# Revision: 2
# Processed by: cddbd v1.5.2PL0 Copyright (c) Steve Scherf et al.
# Submitted via: ExactAudioCopy v0.99pb4
#
DISCID=880a300a
DTITLE=Wildwest - Abenteuer - Die Jagd nach dem Saphir (18)
DYEAR=2002
DGENRE=Speech
TTITLE0=Was stimmt nicht in Amerika
TTITLE1=Zeit für Gottes Wort
TTITLE2=Nächtliche Schlägerei
TTITLE3=Stein des Anstosses
TTITLE4=Der besondere Strohballen
TTITLE5=Es ist weg
TTITLE6=Ein riskanter Plan
TTITLE7=Tausch unter Waffen
TTITLE8=Schüsse
TTITLE9=Überraschung
EXTD=
EXTT0=
EXTT1=
EXTT2=
EXTT3=
EXTT4=
EXTT5=
EXTT6=
EXTT7=
EXTT8=
EXTT9=
PLAYORDER=
